<svg xmlns="http://www.w3.org/2000/svg" fill="none" viewBox="1.31 1 21.39 22">
								<g fill-rule="evenodd" clip-rule="evenodd">
									<path d="M12 8a4 4 0 1 0 0 8 4 4 0 0 0 0-8zm-2 4a2 2 0 1 1 4 0 2 2 0 0 1-4 0z" />
									<path d="M12 8a4 4 0 1 0 0 8 4 4 0 0 0 0-8zm-2 4a2 2 0 1 1 4 0 2 2 0 0 1-4 0z" />
									<path
										d="M10.767 1.017C10.993 1 11.245 1 11.452 1h1.096c.207 0 .46 0 .685.017.266.02.635.072 1.03.252a3 3 0 0 1 1.238 1.042c.244.36.358.715.424.973.055.22.098.468.133.672l.141.82.003.002.104.058.003.002.936-.34c.19-.068.424-.153.639-.213.253-.07.611-.146 1.038-.115a3 3 0 0 1 1.502.536c.35.245.579.53.73.745.129.182.256.396.36.57l.502.839c.11.183.243.407.347.615.121.245.27.6.315 1.046a3 3 0 0 1-.298 1.633c-.199.401-.463.68-.663.867a9.37 9.37 0 0 1-.541.454L20.5 12l.675.525c.168.133.372.295.542.454.2.186.464.466.663.867a3 3 0 0 1 .298 1.633c-.045.446-.194.8-.315 1.046a9.39 9.39 0 0 1-.347.615l-.502.84a9.152 9.152 0 0 1-.36.569c-.151.215-.38.5-.73.745a3 3 0 0 1-1.502.536 3.003 3.003 0 0 1-1.038-.115 9.201 9.201 0 0 1-.639-.214l-.937-.339-.002.002-.104.058-.003.002-.141.82a9.219 9.219 0 0 1-.133.672c-.066.258-.18.613-.424.973a3 3 0 0 1-1.238 1.042c-.395.18-.764.232-1.03.252a9.284 9.284 0 0 1-.685.017h-1.096c-.207 0-.46 0-.685-.017a3.005 3.005 0 0 1-1.03-.252 3 3 0 0 1-1.238-1.042 3.005 3.005 0 0 1-.424-.973c-.055-.22-.098-.469-.133-.672l-.141-.82-.003-.002a8.002 8.002 0 0 1-.104-.058l-.003-.002-.936.34c-.19.068-.424.153-.638.213-.254.07-.612.146-1.039.115a3 3 0 0 1-1.501-.536c-.35-.245-.58-.53-.732-.745a9.17 9.17 0 0 1-.359-.57l-.502-.839a9.385 9.385 0 0 1-.347-.615c-.121-.245-.27-.6-.315-1.046a3 3 0 0 1 .298-1.633c.199-.401.463-.68.663-.867.17-.159.374-.32.541-.454l.654-.52v-.01l-.654-.52a9.374 9.374 0 0 1-.541-.454 3.008 3.008 0 0 1-.663-.867 3 3 0 0 1-.298-1.633c.045-.446.194-.8.315-1.046.104-.208.237-.432.347-.615l.502-.84a9.2 9.2 0 0 1 .36-.568c.151-.216.38-.501.73-.746a3 3 0 0 1 1.502-.536c.427-.031.785.045 1.038.115.215.06.448.145.639.214l.936.339.003-.002.104-.058.003-.002.141-.82c.035-.204.078-.453.133-.672.066-.258.18-.613.424-.973A3 3 0 0 1 9.737 1.27c.395-.18.764-.232 1.03-.252zm3.327 3.32c-.083-.48-.124-.72-.246-.9a1 1 0 0 0-.413-.347c-.197-.09-.44-.09-.928-.09h-1.014c-.487 0-.73 0-.928.09a1 1 0 0 0-.413.347c-.122.18-.163.42-.246.9l-.156.904c-.056.322-.083.484-.142.608a.867.867 0 0 1-.202.283c-.097.096-.278.196-.64.396l-.08.045c-.346.198-.52.297-.648.33a.867.867 0 0 1-.335.029c-.133-.011-.28-.065-.577-.172l-1.014-.367c-.45-.162-.674-.244-.887-.228a1 1 0 0 0-.5.178c-.175.123-.298.328-.543.738l-.46.769c-.258.433-.387.65-.41.87a1 1 0 0 0 .1.545c.098.2.296.357.69.67l.725.577c.252.2.378.3.457.408a.86.86 0 0 1 .16.33c.034.129.034.336.034.75s0 .621-.034.75a.859.859 0 0 1-.16.33c-.079.107-.205.208-.457.408l-.724.576c-.395.314-.593.471-.692.67a1 1 0 0 0-.099.545c.023.222.152.438.41.871l.46.769c.245.41.368.615.543.738a1 1 0 0 0 .5.178c.213.016.438-.066.887-.228l1.014-.367c.296-.107.444-.16.577-.172a.867.867 0 0 1 .335.029c.128.033.302.132.648.33l.08.045c.362.2.543.3.64.396a.867.867 0 0 1 .202.283c.059.124.086.286.142.608l.156.905c.083.48.124.72.246.899a1 1 0 0 0 .413.347c.197.09.44.09.928.09h1.014c.487 0 .73 0 .928-.09a1 1 0 0 0 .413-.347c.122-.18.163-.42.246-.9l.156-.904c.056-.322.083-.484.142-.608a.868.868 0 0 1 .202-.283c.098-.096.279-.196.64-.396l.08-.045c.346-.198.52-.297.648-.33a.867.867 0 0 1 .335-.029c.133.011.28.065.577.172l1.014.367c.45.163.674.244.887.228a1 1 0 0 0 .5-.178c.175-.123.298-.328.543-.738l.46-.769c.258-.432.387-.649.41-.87a1 1 0 0 0-.1-.545c-.099-.2-.296-.357-.69-.67l-.725-.577c-.252-.2-.378-.3-.457-.408a.86.86 0 0 1-.16-.33c-.035-.129-.035-.336-.035-.75s0-.621.035-.75a.861.861 0 0 1 .16-.33c.079-.107.205-.208.456-.408l.725-.576c.395-.314.593-.471.692-.67a1 1 0 0 0 .099-.545c-.023-.222-.152-.438-.41-.871l-.46-.769c-.245-.41-.368-.615-.543-.738a1 1 0 0 0-.5-.178c-.213-.016-.438.065-.887.228l-1.014.367c-.296.107-.444.16-.577.172a.867.867 0 0 1-.335-.029c-.128-.033-.302-.132-.648-.33a7.869 7.869 0 0 0-.08-.045c-.361-.2-.543-.3-.64-.396a.868.868 0 0 1-.202-.283c-.059-.124-.086-.286-.142-.608l-.156-.905z" />
								</g>
							</svg>