<svg xmlns="http://www.w3.org/2000/svg" xml:space="preserve" viewBox="2.4 3.85 19.2 16.15"><g id="SVGRepo_iconCarrier"><style/><path d="M20.5 13.6c.7-.2 1.1-.9 1.1-1.6s-.4-1.3-1.1-1.6l-.5-.2.5-.2c.7-.2 1.1-.9 1.1-1.6 0-.7-.4-1.3-1.1-1.6L12.6 4c-.4-.2-.8-.2-1.2 0l-8 2.8c-.6.3-1 1-1 1.7s.4 1.3 1.1 1.6l.5.1-.5.2c-.7.2-1.1.9-1.1 1.6s.4 1.3 1.1 1.6l.5.2-.5.2c-.7.2-1.1.9-1.1 1.6 0 .7.4 1.3 1.1 1.6l7.9 2.8h.6c.2 0 .4 0 .5-.1l8-2.8c.7-.2 1.1-.9 1.1-1.6 0-.7-.4-1.3-1.1-1.6l-.5-.1.5-.2zM12 6l7 2.5-7 2.5-7-2.5L12 6zm0 12-7-2.5 2-.7 4.4 1.5c.1 0 .2.1.3.1H12c.2 0 .4 0 .5-.1l4.4-1.6 2 .7L12 18zm0-3.5L5 12l2-.7 4.4 1.5c.1 0 .2.1.3.1H12c.2 0 .4 0 .5-.1l4.4-1.6 2 .7-6.9 2.6z" id="_icons"/></g></svg>