<svg width="200" height="200" viewBox="0 0 200 200" fill="none" xmlns="http://www.w3.org/2000/svg">
<g clip-path="url(#clip0_43_402)">
<path d="M200 100C200 95.2862 174.903 91.2458 139.109 89.5105C169.231 70.1114 188.967 54.0534 186.61 49.987C184.253 45.9207 160.502 54.9599 128.645 71.3546C145.04 39.4975 154.079 15.7213 150.013 13.3903C145.947 11.0334 129.889 30.7433 110.49 60.891C108.754 25.0971 104.714 0 100 0C95.2862 0 91.2458 25.0971 89.5105 60.891C70.1373 30.7692 54.0793 11.0334 50.0129 13.3903C45.9466 15.7472 54.9858 39.4975 71.3805 71.3546C39.5234 54.9599 15.7472 45.9207 13.4162 49.987C11.0593 54.0534 30.7692 70.1114 60.9169 89.5105C25.0971 91.2717 0 95.2862 0 100C0 104.714 25.0971 108.754 60.891 110.49C30.7692 129.889 11.0334 145.921 13.3903 150.013C15.7472 154.079 39.4975 145.04 71.3546 128.645C54.9599 160.502 45.9207 184.279 49.987 186.61C54.0534 188.967 70.1114 169.257 89.5105 139.109C91.2458 174.903 95.2862 200 100 200C104.714 200 108.754 174.903 110.49 139.109C129.889 169.231 145.947 188.967 150.013 186.61C154.079 184.253 145.04 160.502 128.645 128.645C160.502 145.04 184.279 154.079 186.61 150.013C188.967 145.947 169.257 129.889 139.109 110.49C174.903 108.754 200 104.714 200 100Z" fill="#013E39"/>
</g>
<defs>
<clipPath id="clip0_43_402">
<rect width="200" height="200" fill="white"/>
</clipPath>
</defs>
</svg>
