<svg xmlns="http://www.w3.org/2000/svg" viewBox="0 0 20 14">
  <path id="Cloud-upload-Icon-SVG-okjdfdf" d="M8.5,33.5a4,4,0,0,1,3.7,2.48,2,2,0,0,1,3.024,2.533q.137-.013.276-.013a3,3,0,0,1,0,6H5a3.5,3.5,0,0,1-.5-6.964c0-.012,0-.024,0-.036a4,4,0,0,1,4-4m0-1.5a5.5,5.5,0,0,0-5.384,4.368A5,5,0,0,0,5,46H15.5a4.5,4.5,0,0,0,1.491-8.747A3.5,3.5,0,0,0,12.8,34.071,5.5,5.5,0,0,0,8.5,32ZM9.75,42.625V38.267l1.7,1.743a.375.375,0,0,0,.533,0l.527-.527a.375.375,0,0,0,0-.53L9.265,35.7a.375.375,0,0,0-.53,0l-3.25,3.25a.375.375,0,0,0,0,.53l.527.527a.375.375,0,0,0,.533,0l1.7-1.743v4.358A.375.375,0,0,0,8.625,43h.75A.375.375,0,0,0,9.75,42.625Z" transform="translate(0 -32)"/>
</svg>