<svg width="64" height="64" viewBox="0 0 24 24" fill="none" xmlns="http://www.w3.org/2000/svg"><path fill-rule="evenodd" clip-rule="evenodd" d="M11.576 5.56a2515.203 2515.203 0 0 0-5.79-3.118 1.858 1.858 0 0 0-1.28-.214 1.54 1.54 0 0 0-.915.61c-.235.328-.341.735-.341 1.18V19.84c0 .388.076.797.288 1.14.228.369.6.636 1.083.68a.747.747 0 0 0 .17-.003c.35.001.682-.111.99-.279l.11-.059.615-.333a5749.164 5749.164 0 0 0 12.265-6.648l.85-.463a447.065 447.065 0 0 1 1.085-.587l.073-.038.026-.014.018-.01c.321-.168.765-.528.893-1.074a1.256 1.256 0 0 0-.149-.942c-.17-.286-.438-.5-.741-.661l-.008-.004a497.726 497.726 0 0 1-3.917-2.125.752.752 0 0 0-.128-.055l-1.523-.823-3.674-1.982zm2.131 5.29L8.311 5.505l2.553 1.377 3.673 1.982.753.406-1.583 1.582zM4.75 19.783V4.087l7.896 7.824-7.896 7.871zm10.026-7.876 1.907-1.896c1.787.975 3.152 1.716 3.441 1.866l.022.012a.408.408 0 0 1-.018.01c-.155.08-.974.525-2.147 1.163l-1.309.712-1.896-1.867zm-6.367 6.346 5.304-5.287 1.581 1.557a5153.142 5153.142 0 0 1-6.885 3.73z" fill="#fff"/></svg>