<svg xmlns="http://www.w3.org/2000/svg" viewBox="0 0 24 26" width="26" height="28"><path fill="#666" fill-rule="evenodd" d="m21.53 1.09.05.142 2.347 7.837a1.72 1.72 0 0 1-.142 1.328l-.092.148L13.62 25.109a1.539 1.539 0 0 1-1.276.668c-.26 0-.514-.065-.743-.192l-.134-.083-10.8-7.468a1.54 1.54 0 0 1-.642-.996 1.534 1.534 0 0 1 .17-1.028l.08-.13L10.349 1.314c.265-.386.669-.64 1.125-.718l.174-.02 8.162-.57a1.706 1.706 0 0 1 1.72 1.082zm-1.601.216h-.015l-.016.001-8.163.57a.413.413 0 0 0-.266.121l-.048.059L1.348 16.622a.24.24 0 0 0 .016.298l.045.04 10.8 7.468a.23.23 0 0 0 .182.04.246.246 0 0 0 .115-.055l.04-.045L22.62 9.802a.419.419 0 0 0 .072-.284l-.016-.074-2.347-7.839a.416.416 0 0 0-.4-.299zm-4.29 6.403a.653.653 0 0 1 .219.816l-.053.092-.363.524c.736.625 1.187 1.32 1.308 2.079a2.721 2.721 0 0 1-.46 1.99.65.65 0 0 1-.914.123.65.65 0 0 1-.128-.907c.02-.029.31-.45.211-1.02-.062-.359-.265-.711-.602-1.052l-.153-.146-1.912 2.765c1.77 1.59 1.225 3.524.629 4.385a3.024 3.024 0 0 1-1.262.981 2.916 2.916 0 0 1-1.129.225c-.45 0-.969-.107-1.546-.38l-.22-.109-.31.45a.653.653 0 0 1-1.128-.65l.053-.092.314-.454c-1.61-1.46-1.282-3.27-.833-4.082a.65.65 0 1 1 1.14.63 2 2 0 0 0 .319 2.23l.125.137 2.08-3.007c-1.075-.947-1.277-1.952-1.24-2.667a3.19 3.19 0 0 1 .496-1.553c.05-.075.594-.866 1.7-1.083.677-.133 1.402-.007 2.158.355l.227.116.366-.53a.654.654 0 0 1 .908-.166zm-3.596 6.349-2.032 2.936c1.445.697 2.192-.18 2.341-.382.16-.239.831-1.41-.31-2.554zm-.686-4.307c-.14.215-.69 1.2.287 2.266l.13.134 1.849-2.672c-1.498-.732-2.184.156-2.266.272zm5.91-6.44a1.163 1.163 0 1 1 1.915 1.322 1.163 1.163 0 0 1-1.914-1.322z"/></svg>