<svg xmlns="http://www.w3.org/2000/svg" viewBox="0 0 24 23" width="26" height="25"><path fill="#666" fill-rule="evenodd" d="M17.873 0c.384 0 .696.312.696.696v1.278h4.013c.78 0 1.418.637 1.418 1.42V20.98a1.42 1.42 0 0 1-1.418 1.418H1.419a1.42 1.42 0 0 1-1.42-1.418V3.393a1.42 1.42 0 0 1 1.42-1.419h4.013V.696a.695.695 0 1 1 1.391 0v1.278h10.355V.696c0-.384.31-.696.695-.696zm4.736 8.383H1.41l-.02 12.598 21.19.027c.014 0 .028-.013.028-.027V8.383zm-7.432 3.38a.696.696 0 1 1 .984.984l-4.892 4.892a.696.696 0 0 1-.984 0l-2.446-2.446a.695.695 0 1 1 .984-.983l1.954 1.954zM1.42 3.366l-.006 3.626H22.61V3.393l-4.04-.005V5.08a.695.695 0 1 1-1.391 0V3.386L6.823 3.373V5.08a.695.695 0 1 1-1.391 0V3.371l-4.013-.005z"/></svg>